#N canvas 460 131 450 300 10;
#X obj 83 35 loadbang;
#X obj 112 95 metro 1000;
#X obj 85 117 timer;
#X obj 83 57 t b b;
#X obj 85 139 print Time;
#X connect 0 0 3 0;
#X connect 1 0 2 1;
#X connect 2 0 4 0;
#X connect 3 0 1 0;
#X connect 3 1 2 0;
